<svg width="180" height="48" fill="none" xmlns="http://www.w3.org/2000/svg"><g clip-path="url(#a)"><path fill-rule="evenodd" clip-rule="evenodd" d="M8.643 14.245v11.399h5.365v-11.4H8.643zM22.693 37H14.05l-2.937-8.154H8.686L8.643 37H0V11h18.649c1.235 0 2.214.384 2.938 1.11.724.726 1.064 1.708 1.064 2.946v9.734c0 1.067-.298 1.921-.809 2.604-.553.683-1.277 1.153-2.171 1.324L22.694 37zm10.39-2.86h4.3v-9.265h-4.3v9.265zM45.345 37H29.123c-1.235 0-2.214-.384-2.938-1.11-.724-.726-1.107-1.708-1.107-2.946v-7.727c0-.94.298-1.75.894-2.348.596-.598 1.363-.897 2.342-.897h9.069V19.07H29.08v-2.86h13.072c.936 0 1.703.299 2.299.896.596.598.894 1.366.894 2.348V37zm10.772-2.86V19.069h4.3v15.07h-4.3zM52.115 37h16.307V11H60.46v5.209h-9.154c-.98 0-1.746.298-2.342.896-.596.598-.894 1.409-.894 2.348v13.491c0 1.238.383 2.22 1.107 2.946S50.88 37 52.115 37zm54.158-11.527L112.446 37h-7.961l-3.194-6.062L96.863 37h-3.576l6.429-8.923-6.344-11.868h7.962l3.406 6.404 4.598-6.404H113l-6.727 9.264zm-22.95 8.667h-4.3v-9.265h4.3v9.265zM75.064 37h16.223V19.453c0-.982-.298-1.75-.895-2.348-.596-.598-1.362-.896-2.299-.896h-13.07v2.86h8.302v2.903h-9.07c-.979 0-1.745.299-2.341.897-.596.597-.894 1.409-.894 2.348v7.727c0 1.238.383 2.22 1.107 2.946S73.829 37 75.064 37z" fill="#8F9090"/></g><defs><clipPath id="a"><path fill="#fff" transform="translate(0 11)" d="M0 0h113v26H0z"/></clipPath></defs></svg>