<svg width="180" height="48" fill="none" xmlns="http://www.w3.org/2000/svg"><g clip-path="url(#a)"><path fill-rule="evenodd" clip-rule="evenodd" d="M17.244 36H0V12h17.277c3.825 0 6.911 3.067 6.911 6.867v10.266A6.93 6.93 0 0 1 17.244 36zm-7.85-9.333h4.26c.637 0 1.14-.5 1.14-1.134v-3.1c0-.633-.503-1.133-1.14-1.133h-4.26v5.367zM33.446 12c-3.824 0-6.91 3.067-6.91 6.833V36h9.393v-2.867h5.401V36h9.393V12H33.447zm2.483 12.567V22.4c0-.6.503-1.1 1.107-1.1h4.26v3.267H35.93zM60.722 21.3 52.838 36h24.457v-9.3h-7.616L77.563 12H53.14v9.3h7.582zM78.1 36l7.884-14.7h-7.582V12h24.423l-7.884 14.7h7.615V36H78.1zm46.9 0v-9.3h-8.555V12h-11.473v24H125z" fill="#8F9090"/></g><defs><clipPath id="a"><path fill="#fff" transform="translate(0 12)" d="M0 0h125v24H0z"/></clipPath></defs></svg>