<svg width="40" height="40" fill="none" xmlns="http://www.w3.org/2000/svg"><path d="M30.98 13.34c-.651-1.158-1.358-1.371-2.796-1.452-1.437-.098-5.05-.138-8.181-.138-3.137 0-6.752.04-8.187.136-1.436.083-2.144.295-2.8 1.454C8.345 14.496 8 16.488 8 19.995V20.009c0 3.492.345 5.498 1.015 6.643.657 1.158 1.364 1.368 2.8 1.465 1.437.085 5.051.134 8.188.134 3.13 0 6.744-.05 8.183-.132 1.438-.098 2.145-.307 2.796-1.465C31.657 25.508 32 23.5 32 20.008v-.012c0-3.509-.342-5.5-1.02-6.657zM17 24.5v-9l7.5 4.5-7.5 4.5z" fill="#fff"/></svg>