<svg width="40" height="40" fill="none" xmlns="http://www.w3.org/2000/svg"><path d="M20 8C13.37 8 8 13.373 8 20.009c0 5.085 3.153 9.43 7.622 11.18-.108-.956-.199-2.399.036-3.444.216-.938 1.405-5.969 1.405-5.969s-.36-.721-.36-1.785c0-1.677.973-2.921 2.162-2.921 1.027 0 1.513.775 1.513 1.695 0 1.028-.648 2.578-.99 4.003-.289 1.19.594 2.164 1.783 2.164 2.126 0 3.766-2.254 3.766-5.5 0-2.867-2.072-4.886-5.01-4.886-3.404 0-5.422 2.56-5.422 5.21 0 1.028.396 2.146.9 2.741.09.127.109.217.09.343-.09.379-.288 1.19-.324 1.352-.054.217-.18.27-.396.163-1.496-.704-2.433-2.885-2.433-4.652 0-3.787 2.757-7.267 7.928-7.267 4.162 0 7.388 2.975 7.388 6.924 0 4.13-2.613 7.465-6.217 7.465-1.207 0-2.36-.631-2.756-1.37l-.74 2.849c-.27 1.045-1.008 2.344-1.494 3.155 1.117.343 2.306.541 3.549.541 6.63 0 12-5.373 12-12.009C32 13.373 26.63 8 20 8z" fill="#fff"/></svg>