<svg width="17" height="14" fill="none" xmlns="http://www.w3.org/2000/svg"><path d="M2 1a1 1 0 0 0-1 1v10a1 1 0 0 0 1 1h13a1 1 0 0 0 1-1V2a1 1 0 0 0-1-1H2zm5.9 7.175a1.005 1.005 0 0 0 1.2 0l.733-.55L15 11.5v.5H2v-.5l5.167-3.875.733.55zm.6-.8L2 2.5V2h13v.5L8.5 7.375zM2 3.75 6.333 7 2 10.25v-6.5zm13 6.5L10.667 7 15 3.75v6.5z" fill="#003154"/><path fill-rule="evenodd" clip-rule="evenodd" d="M2 1.1a.9.9 0 0 0-.9.9v10a.9.9 0 0 0 .9.9h13a.9.9 0 0 0 .9-.9V2a.9.9 0 0 0-.9-.9H2zM.9 2A1.1 1.1 0 0 1 2 .9h13A1.1 1.1 0 0 1 16.1 2v10a1.1 1.1 0 0 1-1.1 1.1H2A1.1 1.1 0 0 1 .9 12V2zm1-.1h13.2v.65L8.5 7.5 1.9 2.55V1.9zm.2.2v.35l6.4 4.8 6.4-4.8V2.1H2.1zm-.2 1.45L6.5 7l-4.6 3.45v-6.9zm13.2 0v6.9L10.5 7l4.6-3.45zm-13 .4v6.1L6.167 7 2.1 3.95zM10.833 7l4.067 3.05v-6.1L10.833 7zm-3.666.5.793.595a.906.906 0 0 0 1.08 0l.793-.595 5.267 3.95v.65H1.9v-.65L7.167 7.5zm0 .25L2.1 11.55v.35h12.8v-.35l-5.067-3.8-.673.505a1.106 1.106 0 0 1-1.32 0l-.673-.505z" fill="#003154"/></svg>